<?xml version="1.0" encoding="UTF-8" standalone="no"?>
<svg
   xmlns:dc="http://purl.org/dc/elements/1.1/"
   xmlns:cc="http://creativecommons.org/ns#"
   xmlns:rdf="http://www.w3.org/1999/02/22-rdf-syntax-ns#"
   xmlns:svg="http://www.w3.org/2000/svg"
   xmlns="http://www.w3.org/2000/svg"
   xmlns:xlink="http://www.w3.org/1999/xlink"
   xmlns:sodipodi="http://sodipodi.sourceforge.net/DTD/sodipodi-0.dtd"
   xmlns:inkscape="http://www.inkscape.org/namespaces/inkscape"
   viewBox="0 0 830.13 830.09713"
   version="1.1"
   id="svg42"
   sodipodi:docname="Elemental.svg"
   width="830.13"
   height="830.09711"
   inkscape:version="0.92.2 (5c3e80d, 2017-08-06)">
  <metadata
     id="metadata46">
    <rdf:RDF>
      <cc:Work
         rdf:about="">
        <dc:format>image/svg+xml</dc:format>
        <dc:type
           rdf:resource="http://purl.org/dc/dcmitype/StillImage" />
        <dc:title>Asset 1</dc:title>
      </cc:Work>
    </rdf:RDF>
  </metadata>
  <sodipodi:namedview
     pagecolor="#ffffff"
     bordercolor="#666666"
     borderopacity="1"
     objecttolerance="10"
     gridtolerance="10"
     guidetolerance="10"
     inkscape:pageopacity="0"
     inkscape:pageshadow="2"
     inkscape:window-width="1920"
     inkscape:window-height="1027"
     id="namedview44"
     showgrid="false"
     fit-margin-top="0"
     fit-margin-left="0"
     fit-margin-right="0"
     fit-margin-bottom="0"
     inkscape:zoom="0.71212172"
     inkscape:cx="766.73935"
     inkscape:cy="86.643417"
     inkscape:window-x="1912"
     inkscape:window-y="-8"
     inkscape:window-maximized="1"
     inkscape:current-layer="Layer_1-2" />
  <defs
     id="defs16">
    <style
       id="style2">.cls-1{fill:url(#linear-gradient);}.cls-2{fill:url(#linear-gradient-2);}.cls-3{fill:url(#linear-gradient-3);}.cls-4{fill:url(#linear-gradient-4);}.cls-5{fill:url(#linear-gradient-5);}.cls-6{fill:url(#linear-gradient-6);}.cls-7{fill:url(#linear-gradient-7);}.cls-8{fill:url(#linear-gradient-8);}.cls-9{fill:#fff;}</style>
    <linearGradient
       id="linear-gradient"
       x1="402.88"
       y1="603.46997"
       x2="403"
       y2="603.46997"
       gradientUnits="userSpaceOnUse">
      <stop
         offset="0"
         stop-color="#3b56a6"
         id="stop4" />
      <stop
         offset="1"
         stop-color="#00e9bf"
         id="stop6" />
    </linearGradient>
    <linearGradient
       id="linear-gradient-2"
       x1="403"
       y1="603.5"
       x2="403.78"
       y2="603.5"
       xlink:href="#linear-gradient" />
    <linearGradient
       id="linear-gradient-3"
       x1="117.46"
       y1="301.73001"
       x2="720.73999"
       y2="301.73001"
       xlink:href="#linear-gradient" />
    <linearGradient
       id="linear-gradient-4"
       x1="-6328.4302"
       y1="-2789.51"
       x2="-5724.5698"
       y2="-2789.51"
       gradientTransform="rotate(137.77,-3368.6865,32.122435)"
       xlink:href="#linear-gradient" />
    <linearGradient
       id="linear-gradient-5"
       x1="-6294.4302"
       y1="-2891.1101"
       x2="-5784.75"
       y2="-2891.1101"
       gradientTransform="rotate(137.77,-3368.6865,32.122435)"
       xlink:href="#linear-gradient" />
    <linearGradient
       id="linear-gradient-6"
       x1="0"
       y1="542"
       x2="634.09998"
       y2="542"
       xlink:href="#linear-gradient" />
    <linearGradient
       id="linear-gradient-7"
       x1="-6134.3599"
       y1="-2920.54"
       x2="-5498.2402"
       y2="-2920.54"
       gradientTransform="rotate(137.77,-3368.6865,32.122435)"
       xlink:href="#linear-gradient" />
    <linearGradient
       id="linear-gradient-8"
       x1="-6214.0498"
       y1="-2907.3101"
       x2="-5621.6499"
       y2="-2907.3101"
       gradientTransform="rotate(137.77,-3368.6865,32.122435)"
       xlink:href="#linear-gradient" />
    <linearGradient
       inkscape:collect="always"
       xlink:href="#linear-gradient"
       id="linearGradient4542"
       gradientUnits="userSpaceOnUse"
       x1="402.88"
       y1="603.46997"
       x2="403"
       y2="603.46997" />
  </defs>
  <title
     id="title18">Asset 1</title>
  <g
     id="Layer_2"
     data-name="Layer 2"
     transform="translate(0,-6.9964081e-4)">
    <g
       id="Layer_1-2"
       data-name="Layer 1">
      <path
         class="cls-1"
         d="M 402.93,603.47 Z"
         id="path20"
         inkscape:connector-curvature="0"
         style="fill:url(#linearGradient4542)" />
      <path
         class="cls-2"
         d="M 403.78,603.52 H 403 403.12 Z"
         id="path22"
         inkscape:connector-curvature="0"
         style="fill:url(#linear-gradient-2)" />
      <path
         class="cls-3"
         d="M 720.74,134.1 C 644.8,52.54 534,22.31 432.25,45.54 A 301.92,301.92 0 0 0 270.74,536.69 l 0.52,0.61 0.62,0.73 0.13,0.14 c 0.16,0.19 0.31,0.38 0.47,0.55 0.45,0.53 0.91,1 1.36,1.56 l 1.51,1.68 0.31,0.34 c 0.12,0.13 0.23,0.26 0.36,0.39 l 0.86,0.93 c 0.11,0.12 0.23,0.24 0.34,0.37 0.76,0.81 1.51,1.61 2.29,2.4 0.28,0.3 0.57,0.59 0.85,0.88 l 0.41,0.42 0.89,0.9 0.09,0.09 c 0.2,0.2 0.41,0.39 0.61,0.6 l 0.13,0.13 1,1 0.19,0.19 v 0 q 0.43,0.4 0.87,0.84 c 0,0 0,0 0.06,0 l 0.13,0.13 v 0 l 0.15,0.14 0.14,0.14 0.29,0.28 c 0.57,0.54 1.14,1.08 1.71,1.6 0.57,0.52 1.15,1 1.73,1.58 l 1.73,1.55 1.76,1.52 c 0.58,0.51 1.18,1 1.77,1.5 0.59,0.5 1.07,0.9 1.62,1.34 l 0.3,0.24 c 0.55,0.46 1.1,0.9 1.67,1.35 0.57,0.45 1.19,1 1.8,1.42 0.61,0.42 1.21,0.95 1.83,1.41 l 1.84,1.37 c 0.61,0.46 1.23,0.91 1.85,1.36 l 1.86,1.32 q 3.06,2.13 6.16,4.13 l 0.62,0.4 0.82,0.52 c 0.63,0.41 1.27,0.8 1.92,1.19 0.39,0.26 0.79,0.5 1.2,0.74 q 1.34,0.81 2.7,1.59 c 0.24,0.15 0.48,0.29 0.73,0.42 0.4,0.25 0.81,0.48 1.22,0.71 l 0.76,0.42 1.43,0.8 1.77,0.95 c 0.66,0.36 1.32,0.71 2,1.05 l 0.74,0.38 h 0.11 c 0.38,0.21 0.77,0.4 1.16,0.59 0.39,0.19 0.58,0.31 0.89,0.45 l 1.12,0.55 0.37,0.19 0.48,0.22 0.75,0.37 0.42,0.19 0.24,0.12 0.66,0.31 v 0 l 0.72,0.34 0.3,0.13 c 0.59,0.28 1.19,0.55 1.79,0.81 l 1.31,0.58 v 0 c 0.21,0.1 0.43,0.19 0.65,0.27 a 0.2,0.2 0 0 0 0.09,0.05 2.52,2.52 0 0 0 0.29,0.12 c 0.34,0.16 0.7,0.32 1.06,0.46 0.16,0.08 0.34,0.15 0.51,0.22 l 0.24,0.1 c 0.16,0.07 0.34,0.15 0.52,0.21 l 1.5,0.62 0.3,0.11 0.6,0.25 c 1.14,0.45 2.29,0.91 3.44,1.34 l 1.58,0.59 2.07,0.74 h 0.1 c 2.16,0.76 4.32,1.47 6.5,2.15 1.53,0.48 3.07,1 4.62,1.37 1.55,0.37 2.9,0.82 4.36,1.19 a 1.22,1.22 0 0 0 0.26,0.06 q 2.94,0.76 5.91,1.43 c 0.23,0 0.45,0.09 0.67,0.15 h 0.15 c 0.53,0.11 1,0.23 1.58,0.33 a 5.41,5.41 0 0 0 0.58,0.12 h 0.15 c 0.72,0.15 1.44,0.29 2.17,0.42 0.55,0.12 1.11,0.22 1.69,0.32 l 0.52,0.1 q 0.69,0.14 1.41,0.24 a 6.29,6.29 0 0 0 0.65,0.11 l 0.55,0.1 1,0.16 0.35,0.06 1,0.15 0.82,0.13 0.63,0.09 h 0.27 l 1.29,0.18 0.79,0.1 c 0.61,0.09 1.22,0.17 1.84,0.23 a 5,5 0 0 0 0.66,0.08 l 0.82,0.11 c 0.21,0 0.42,0 0.64,0.06 a 3.07,3.07 0 0 0 0.53,0.06 l 1.09,0.12 c 0.26,0 0.53,0.06 0.81,0.08 0.28,0.02 0.55,0.06 0.83,0.08 h 0.27 l 0.5,0.05 1.46,0.11 a 2.59,2.59 0 0 0 0.41,0 h 0.33 0.33 0.15 0.77 0.12 l 1.14,0.08 A 302,302 0 0 1 165.12,139.06 C 220,53.58 316.57,-1.89 424.67,0.05 H 426 l 1.75,0.05 h 1.47 1.06 l 1.3,0.06 H 432 l 2,0.09 h 0.06 0.62 0.47 c 0.36,0 0.72,0 1.09,0.06 l 1.71,0.1 q 7.83,0.44 15.56,1.13 a 1.53,1.53 0 0 0 0.3,0 l 4.12,0.41 0.8,0.08 h 0.32 c 1.44,0.14 2.87,0.31 4.31,0.47 l 0.92,0.11 c 1.44,0.17 2.88,0.35 4.31,0.54 l 1.76,0.23 c 1.07,0.13 2.11,0.27 3.16,0.43 h 0.3 l 4,0.59 a 3.63,3.63 0 0 1 0.59,0.1 h 0.27 l 4.64,0.73 a 0.51,0.51 0 0 0 0.17,0 q 12.21,2 24.27,4.78 7.25,1.99 14.45,3.92 2.67,0.71 5.33,1.46 c 1.43,0.4 2.85,0.8 4.27,1.22 1.6,0.47 3.19,0.94 4.78,1.43 1.59,0.49 2.94,0.9 4.4,1.37 q 3.12,1 6.21,2 c 1.22,0.4 2.43,0.82 3.64,1.23 q 2.86,1 5.72,2 l 3.7,1.36 c 1.41,0.53 2.81,1.05 4.21,1.59 l 1.25,0.49 c 1.31,0.5 2.6,1 3.89,1.53 1.56,0.61 3.11,1.25 4.65,1.89 1.54,0.64 3.08,1.29 4.63,2 1.55,0.71 3.08,1.32 4.6,2 1.52,0.68 3.07,1.36 4.59,2.06 0.37,0.17 0.73,0.33 1.09,0.51 l 2.9,1.34 c 0.62,0.28 1.24,0.58 1.87,0.89 l 2.25,1.07 0.22,0.11 2.09,1 c 0.33,0.15 0.65,0.32 1,0.48 0.35,0.16 0.44,0.2 0.65,0.31 0.41,0.2 0.81,0.4 1.22,0.62 0.41,0.22 0.9,0.44 1.34,0.67 a 4,4 0 0 1 0.41,0.22 l 1,0.51 1.25,0.65 c 0.38,0.2 0.76,0.39 1.13,0.6 1,0.53 2.09,1.07 3.12,1.63 l 4.4,2.36 4,2.23 0.35,0.19 0.92,0.53 c 1.14,0.64 2.28,1.28 3.41,2 l 4.1,2.39 c 1.75,1 3.5,2.1 5.24,3.17 l 3.46,2.15 q 2.73,1.71 5.41,3.46 c 1,0.63 2,1.28 3,1.93 1.37,0.91 2.75,1.83 4.12,2.76 q 4.32,2.93 8.54,6 c 1.22,0.87 2.43,1.74 3.63,2.63 1.54,1.12 3.08,2.26 4.6,3.42 1.12,0.84 2.23,1.68 3.33,2.53 q 4.29,3.3 8.48,6.71 l 3.13,2.56 c 1.27,1.05 2.54,2.11 3.79,3.18 1.65,1.4 3.28,2.8 4.9,4.22 2,1.77 4,3.56 6,5.36 l 0.8,0.73 2,1.81 0.7,0.65 0.4,0.38 1.57,1.47 c 0.33,0.33 0.68,0.65 1,1 0.32,0.35 0.56,0.53 0.84,0.79 l 0.18,0.16 c 0.08,0.08 0.16,0.17 0.24,0.24 a 1.89,1.89 0 0 1 0.2,0.2 c 0.33,0.32 0.67,0.63 1,1 0.12,0.12 0.25,0.23 0.36,0.35 0.75,0.71 1.48,1.42 2.21,2.15 l 0.07,0.07 0.41,0.4 c 1,1 2.06,2 3.08,3.07 l 0.27,0.26 0.06,0.07 c 1.1,1.11 2.19,2.22 3.27,3.35 a 1.33,1.33 0 0 1 0.17,0.16 c 0.15,0.15 0.31,0.31 0.46,0.48 1.15,1.19 2.29,2.38 3.42,3.59 1.13,1.21 2.4,2.46 3.61,3.77 z"
         id="path24"
         inkscape:connector-curvature="0"
         style="fill:url(#linear-gradient-3)" />
      <path
         class="cls-4"
         d="m 271.26,537.3 0.62,0.73 C 202.30689,457.95794 179.83534,347.25912 212.67927,246.39669 245.5232,145.53426 323.90356,65.320799 427.28521,41.568169 529.03521,18.338169 644.8,52.54 720.74,134.1 c 0.31,0.33 0.62,0.66 0.92,1 0.3,0.34 0.6,0.65 0.9,1 l 0.39,0.43 c 0.94,1 1.89,2.09 2.82,3.15 l 0.09,0.1 2.58,2.94 c 0.13,0.15 0.26,0.29 0.38,0.44 l 0.3,0.34 c 0.3,0.35 0.61,0.7 0.9,1.05 l 2,2.36 0.2,0.24 c 0.48,0.56 1,1.12 1.42,1.69 0.17,0.2 0.34,0.4 0.5,0.61 0.16,0.21 0.41,0.48 0.61,0.73 0.2,0.25 0.22,0.26 0.34,0.4 0.12,0.14 0.18,0.21 0.27,0.32 l 0.12,0.15 c 0.86,1 1.71,2.08 2.56,3.13 0.0291,0.0348 0.0559,0.0716 0.08,0.11 0.98,1.2 1.95,2.41 2.91,3.63 l 0.1,0.13 c 0.6,0.76 1.2,1.54 1.8,2.31 0.21,0.26 0.42,0.52 0.62,0.79 l 0.88,1.14 0.28,0.36 0.49,0.65 c 0.82,1.06 1.62,2.13 2.41,3.19 l 0.33,0.43 c 0.86,1.16 1.71,2.3 2.55,3.47 l 0.54,0.73 c 0.69,0.94 1.36,1.89 2,2.83 l 1.46,2.06 c 0.49,0.7 1,1.39 1.46,2.09 0.34,0.48 0.67,0.95 1,1.44 0.61,0.86 1.19,1.71 1.78,2.58 0.29,0.42 0.58,0.85 0.85,1.27 0.76,1.11 1.51,2.24 2.25,3.37 l 0.12,0.18 c 0.85,1.27 1.68,2.54 2.49,3.83 0.13,0.18 0.25,0.38 0.37,0.57 0.72,1.12 1.43,2.23 2.13,3.36 0.22,0.34 0.44,0.68 0.65,1 0.58,0.92 1.16,1.86 1.73,2.8 0.31,0.49 0.62,1 0.91,1.49 0.74,1.2 1.46,2.4 2.17,3.61 0.71,1.21 1.46,2.47 2.18,3.71 l 0.72,1.25 1.4,2.44 c 0.41,0.7 0.8,1.4 1.19,2.11 0.39,0.71 0.85,1.51 1.25,2.27 0.32,0.57 0.62,1.13 0.94,1.71 0.6,1.1 1.19,2.2 1.78,3.31 0.18,0.30667 0.35,0.64 0.51,1 0.46,0.86 0.92,1.73 1.36,2.61 0.35,0.64 0.68,1.29 1,1.94 0.57,1.11 1.14,2.22 1.69,3.32 l 0.41,0.82 c 0.56,1.13 1.13,2.26 1.67,3.4 l 0.52,1.06 1.59,3.31 c 0.19,0.4 0.38,0.82 0.58,1.23 0.57,1.21 1.13,2.42 1.69,3.65 1.61,3.52 3.16,7.06 4.68,10.63 1,2.33 2,4.66 2.89,7 0.74,1.82 1.46667,3.65 2.18,5.49 0,0.09 0.07,0.18 0.11,0.27 0.0226,0.0858 0.0528,0.16945 0.09,0.25 0,0.11 0.08,0.22 0.13,0.34 0.05,0.12 0.08,0.21 0.12,0.32 0.49,1.28 1,2.57 1.45,3.86 0,0.09 0.07,0.19 0.11,0.28 0.3,0.81 0.6,1.64 0.89,2.46 l 0.29,0.78 0.14,0.39 c 0.14,0.38 0.28,0.75 0.4,1.14 0.0613,0.12079 0.10828,0.24832 0.14,0.38 0.07,0.18 0.14,0.38 0.2,0.56 0.14,0.39 0.28,0.77 0.41,1.15 l 0.45,1.32 c 0.17,0.47 0.32,0.93 0.48,1.41 0.1,0.25 0.18,0.51 0.27,0.77 0.0345,0.0851 0.0645,0.17184 0.09,0.26 l 0.46,1.39 c 0.005,0.0162 0.005,0.0338 0,0.05 0.1,0.26 0.19,0.53 0.27,0.8 l 0.27,0.82 c 0.29,0.89 0.59,1.78 0.87,2.67 0.14,0.42 0.27,0.83 0.4,1.25 0.08,0.21 0.14,0.43 0.21,0.66 0.34,1.08 0.68,2.15 1,3.23 0.23,0.73 0.45,1.47 0.67,2.22 0.3,1 0.59,1.94 0.87,2.9 0.08,0.28 0.16,0.54 0.23,0.82 0.44,1.47 0.87,2.95 1.28,4.45 0.41,1.5 0.74,2.69 1.12,4 0.24,0.94 0.5,1.88 0.74,2.83 0.1,0.41 0.21,0.83 0.32,1.26 0.32,1.18 0.62,2.38 0.91,3.59 0.12,0.45 0.23,0.91 0.33,1.37 0.24,1 0.48,1.89 0.69,2.84 0.21,0.95 0.44,1.84 0.64,2.75 0.11,0.44 0.21,0.89 0.31,1.33 0.25333,1.09333 0.49333,2.18333 0.72,3.27 0.22,1 0.43,1.92 0.62,2.89 0.28,1.33333 0.55,2.64333 0.81,3.93 l 0.6,3 c 0.12,0.6 0.23,1.2 0.33,1.79 0.23,1.22 0.46,2.44 0.68,3.66 0.27,1.49 0.52,3 0.78,4.46 0.09,0.51 0.17,1 0.25,1.54 0.2,1.19 0.39,2.36 0.56,3.54 0,0.16 0.06,0.33 0.08,0.5 0.24,1.53 0.46,3.05 0.68,4.57 0.22,1.52 0.45,3.25 0.66,4.88 0.21,1.63 0.4,3.06 0.58,4.58 l 0.12,1 c 0.16,1.35 0.3,2.71 0.44,4.05 0.01,0.12982 0.01,0.26018 0,0.39 0.15,1.45 0.3,2.9 0.43,4.35 0.13,1.45 0.26,2.79 0.38,4.18 0.07,0.73 0.13,1.48 0.18,2.22 0.1,1.23 0.2,2.45 0.28,3.67 0.12,1.63 0.22,3.28 0.32,4.91 0,0.64 0.07,1.28 0.1,1.93 l 0.16,3 c 0.08,1.64 0.14,3.28 0.2,4.91 v 0.08 c 0.05,1.27 0.08,2.54 0.11,3.81 v 1 c 0.005,0.0666 0.005,0.13344 0,0.2 0,1.57 0.06,3.14 0.07,4.71 v 4.16 0.75 0.85 1.55 1.25 2.9 0.32 c 0,1.76 -0.07,3.53 -0.12,5.29 -0.05,1.76 -0.11,3.54 -0.19,5.32 4,-111.37 -58.95775,-210.12704 -147.32775,-265.62704 C 592.8591,110.58008 492.24359,106.3706 397.80443,154.09358 303.36527,201.81657 234.84589,293.51273 226.95,399.03 c 0,0.46 -0.08,0.91 -0.11,1.39 -0.006,0.0832 -0.006,0.16677 0,0.25 v 0.37 0.31 c 0,0.49 -0.06,1 -0.1,1.48 0,0.24 0,0.48 -0.05,0.72 0,0.64 -0.08,1.28 -0.11,1.93 v 0.33 0.09 c -0.005,0.0866 -0.005,0.17341 0,0.26 v 0.83 0.39 0.52 c 0.005,0.0532 0.005,0.10678 0,0.16 v 0.28 0.44 1.35 0.53 0.25 1.07 c -0.01,0.12647 -0.01,0.25353 0,0.38 v 0.83 1.4 0.91 0.32 1 c -0.01,0.0931 -0.01,0.18693 0,0.28 v 0.71 0.41 c -0.0107,0.0325 -0.0107,0.0675 0,0.1 -0.01,0.0897 -0.01,0.18028 0,0.27 v 0.46 0.3 0.44 1 0.1 0.7 c -0.0152,0.12287 -0.0152,0.24713 0,0.37 v 0.74 0.58 0.56 0 c 0.09,2.17 0.23,4.33 0.4,6.49 0.11,1.45 0.24,2.88 0.4,4.3 -0.0169,0.15621 -0.0169,0.31379 0,0.47 0.08,0.79 0.16,1.57 0.26,2.35 0.31,2.72 0.7,5.42 1.13,8.11 0.08,0.52 0.17,1 0.26,1.55 0.5,3 1.08,5.89 1.72,8.79 l 0.48,2.13 c 0.19,0.8 0.39,1.6 0.58,2.39 l 0.48,1.9 c 0.18,0.72 0.37,1.44 0.57,2.15 0,0.14 0.07,0.28 0.12,0.43 0.0373,0.17242 0.0841,0.34268 0.14,0.51 0,0.15 0.08,0.31 0.13,0.48 l 0.2,0.71 c 0.09,0.32 0.18,0.65 0.28,1 0.1,0.35 0.22,0.76 0.33,1.14 0.11,0.38 0.13,0.45 0.21,0.68 0.0408,0.1693 0.0908,0.33622 0.15,0.5 0.16,0.55 0.33,1.1 0.5,1.65 l 0.31,1 0.24,0.71 c 0,0.11 0.06,0.21 0.1,0.32 0.0155,0.0614 0.0355,0.12158 0.06,0.18 0,0.1 0.06,0.2 0.1,0.31 0.0192,0.0791 0.046,0.15607 0.08,0.23 0.0275,0.11608 0.0643,0.22978 0.11,0.34 0.06,0.19 0.12,0.38 0.19,0.58 0.07,0.2 0.21,0.65 0.33,1 0.12,0.35 0.21,0.61 0.32,0.91 l 0.34,1 0.39,1.07 0.08,0.22 c 0.21,0.59 0.43,1.19 0.66,1.78 v 0.06 l 0.42,1.12 v 0.05 l 0.22,0.57 c 0.09,0.24 0.18,0.48 0.28,0.72 l 0.15,0.39 c 0.05,0.15 0.12,0.31 0.18,0.45 0.06,0.14 0.14,0.35 0.21,0.53 l 0.1,0.24 c 0.08,0.21 0.16,0.42 0.25,0.62 0.029,0.0883 0.0623,0.17507 0.1,0.26 0.07,0.2 0.16,0.4 0.24,0.61 0.08,0.21 0.16,0.36 0.23,0.54 0.07,0.18 0.14,0.31 0.19,0.46 0.046,0.0975 0.0861,0.19768 0.12,0.3 l 0.34,0.8 0.52,1.19 c 0.29,0.7 0.61,1.4 0.92,2.11 0.31,0.71 0.63,1.4 1,2.1 l 0.39,0.84 c 0.18,0.39 0.37,0.79 0.56,1.18 0.002,0.0333 0.002,0.0667 0,0.1 0.67,1.38 1.34,2.77 2,4.13 0.12,0.26 0.25,0.5 0.38,0.75 0.58,1.13 1.18,2.25 1.79,3.38 0.73,1.37 1.48,2.72 2.26,4.07 0.34,0.61 0.69,1.21 1.05,1.82 0.36,0.61 0.88,1.48 1.33,2.22 0.45,0.74 0.82,1.34 1.24,2 0.82,1.33 1.67,2.66 2.54,4 0.43,0.67 0.87,1.32 1.31,2 0.44,0.68 0.88,1.3 1.34,1.95 0.46,0.65 0.9,1.3 1.37,1.94 0.47,0.64 0.92,1.28 1.39,1.92 0.0357,0.0427 0.0659,0.0898 0.09,0.14 0.0742,0.0745 0.13809,0.15857 0.19,0.25 1.16,1.57333 2.34667,3.13333 3.56,4.68 l 0.37,0.47 c 0.34,0.43 0.69,0.87 1,1.3 l 0.3,0.38 c 0.28,0.34 0.54,0.68 0.83,1 l 0.28,0.35 0.52,0.62 0.16,0.19 0.22,0.27 0.41,0.48 z"
         id="path26"
         inkscape:connector-curvature="0"
         style="fill:url(#linear-gradient-4)"
         sodipodi:nodetypes="ccsccscccccccccccssscccccccccccccccccccccccccccccscccsccccccscccccccccccscccccccccccccccccccccccccscccccscccccsccccccssccccsccccccccccccccccccssccsccccscccccccccccccccccccccccccccccccccccccccccccccccccccccssccccccccccsscccccccccccsccccssccccsccccccccssccssscccccccccccccc" />
      <path
         class="cls-5"
         d="m 227.12,398.31 c 0,0.25 -0.05,0.51 -0.07,0.77 C 235.002,293.59104 303.52891,193.00263 397.94663,145.29048 492.36436,97.57833 598.90635,109.69909 688.55,165.87 776.9,221.37 833.9,321.12 829.92,432.49 v 0.17 c 0,0.66 0,1.33 -0.08,2 v 0.55 c -0.06,1.33333 -0.13,2.68333 -0.21,4.05 0.0103,0.10308 0.0103,0.20692 0,0.31 -0.08,1.43 -0.17,2.86 -0.27,4.28 v 0.62 c 0.0102,0.0427 0.0102,0.0873 0,0.13 v 0.44 c -0.1,1.44 -0.21,2.88 -0.33,4.33 -0.26667,3.26 -0.57667,6.52 -0.93,9.78 -0.17,1.62 -0.35,3.26 -0.54,4.88 -0.37,3.12 -0.77,6.23 -1.21,9.35 v 0.07 c 0,0.01 0,0.22 -0.05,0.33 -0.08,0.52 -0.15,1 -0.24,1.55 -0.15,1.11 -0.32,2.21 -0.49,3.31 -1.54,10.07333 -3.46333,20.07333 -5.77,30 l -2,8.54 c -1.24,4.86 -2.57333,9.70333 -4,14.53 -0.9,3.08 -1.83333,6.15 -2.8,9.21 -2.62,8.24 -5.49667,16.40667 -8.63,24.5 -0.52,1.37 -1.06,2.73 -1.61,4.1 -1.24,3.1 -2.52,6.2 -3.84,9.27 -0.66667,1.54 -1.33333,3.07667 -2,4.61 -0.66667,1.53333 -1.41333,3.06667 -2.24,4.6 -0.0124,0.0654 -0.0398,0.127 -0.08,0.18 -0.56,1.22 -1.12,2.44 -1.69,3.65 -0.12,0.25 -0.23,0.5 -0.35,0.74 -0.12,0.24 -0.34,0.73 -0.52,1.08 -0.18,0.35 -0.29,0.62 -0.44,0.92 -0.25,0.54 -0.51,1.08 -0.77,1.62 L 788,598 c -0.0685,0.16051 -0.14531,0.31739 -0.23,0.47 l -0.33,0.67 -0.32,0.64 c -0.0105,0.0361 -0.0274,0.07 -0.05,0.1 -0.1,0.23 -0.22,0.45 -0.34,0.67 -0.12,0.22 -0.15,0.33 -0.24,0.49 -0.29,0.59 -0.58,1.17 -0.88,1.75 -0.3,0.58 -0.44,0.87 -0.66,1.29 -0.22,0.42 -0.31,0.63 -0.48,0.93 -0.49,1 -1,1.92 -1.49,2.87 -0.11,0.23 -0.23,0.46 -0.35,0.68 -0.63,1.19 -1.26,2.37 -1.9,3.54 -0.64,1.17 -1.22,2.26 -1.85,3.39 -0.15,0.31 -0.32,0.61 -0.49,0.91 l -0.57,1 c -0.7,1.24 -1.4,2.48 -2.11,3.71 -0.5,0.88 -1,1.76 -1.52,2.63 -0.28,0.5 -0.56,1 -0.85,1.47 l -1.89,3.18 c -0.21,0.35 -0.42,0.71 -0.63,1 -0.55,0.91 -1.1,1.82 -1.66,2.73 l -1,1.65 c -0.43,0.7 -0.87,1.4 -1.31,2.1 l -1.64,2.59 c -0.29,0.46 -0.58,0.9 -0.87,1.35 l -1.56,2.39 c -0.46,0.73 -0.94,1.44 -1.41,2.15 -0.47,0.71 -0.83,1.25 -1.25,1.88 l -1.62,2.37 c -0.43,0.65 -0.86,1.28 -1.31,1.92 -0.45,0.64 -0.94,1.37 -1.43,2.06 -0.38,0.54 -0.76,1.09 -1.15,1.63 -0.61,0.86 -1.21,1.73 -1.84,2.57 -0.31,0.46 -0.64,0.91 -1,1.36 -0.72,1 -1.45,2 -2.19,3 -0.14,0.21 -0.3,0.42 -0.45,0.61 -0.74,1 -1.49,2 -2.24,3 -0.34,0.46 -0.69,0.91 -1,1.36 l -1.9,2.48 c -0.87,1.13 -1.74,2.25 -2.62,3.36 -0.68,0.86 -1.37,1.73 -2.06,2.57 -0.53,0.69 -1.08,1.36 -1.63,2 l -0.39,0.49 c -0.83333,1.02 -1.67333,2.04 -2.52,3.06 -0.11,0.15 -0.24,0.29 -0.35,0.43 l -0.8,0.94 c -0.7,0.86 -1.43,1.71 -2.16,2.56 -0.23,0.28 -0.46,0.55 -0.71,0.83 -0.77,0.91 -1.55,1.81 -2.33,2.7 l -1,1.17 c -0.7,0.81 -1.41,1.61 -2.12,2.41 l -1.52,1.69 c -0.68,0.76 -1.39,1.52 -2.08,2.29 l -0.06,0.05 c -1.07,1.19 -2.16,2.36 -3.26,3.53 -0.91,1 -1.83,1.95 -2.75,2.91 l -0.28,0.3 -0.3,0.31 -0.56,0.58 c -0.32,0.34 -0.65,0.68 -1,1 -0.54,0.57 -1.1,1.13 -1.65,1.69 l -0.36,0.37 c -0.17,0.19 -0.35,0.36 -0.53,0.54 -0.0457,0.0576 -0.0996,0.10811 -0.16,0.15 -0.68,0.71 -1.37,1.4 -2.06,2.08 -0.18,0.19 -0.38,0.38 -0.57,0.57 -0.1324,0.1474 -0.2726,0.2876 -0.42,0.42 -0.15,0.17 -0.31,0.32 -0.48,0.48 -0.17,0.16 -0.32,0.32 -0.48,0.46 -0.72,0.73 -1.46,1.45 -2.2,2.16 -0.2,0.21 -0.4,0.39 -0.61,0.59 -0.21,0.2 -0.19,0.19 -0.28,0.28 L 700,717 c -1.29,1.23 -2.6,2.44 -3.91,3.64 57.05447,-54.13582 86.7668,-117.47155 89.91663,-196.05894 3.14983,-78.58738 -20.51136,-154.3103 -73.05015,-212.83871 C 603.71101,190.04248 417.44183,165.49863 292.77,271.34 v 0 l -0.54,0.46 c -0.11,0.11 -0.23,0.21 -0.34,0.3 l -0.21,0.17 c -0.34,0.3 -0.68,0.59 -1,0.9 v 0 c -0.79,0.69 -1.57,1.39 -2.35,2.09 -0.56,0.51 -1.1,1 -1.67,1.53 l -0.1,0.09 c -0.0817,0.0884 -0.16851,0.17183 -0.26,0.25 -0.42,0.4 -0.85,0.81 -1.28,1.2 l -0.2,0.2 v 0 l -0.48,0.46 -0.28,0.27 -0.16,0.15 -0.44,0.43 v 0 l -0.69,0.68 -0.34,0.34 -0.39,0.37 -0.19,0.19 -0.37,0.38 -0.23,0.24 -0.19,0.18 -0.79,0.8 c -0.15,0.17 -0.3,0.32 -0.46,0.47 -0.16,0.15 -0.28,0.3 -0.42,0.44 l -0.7,0.72 -1.42,1.51 -0.72,0.76 c -0.25,0.26 -0.48,0.54 -0.73,0.8 -0.45,0.49 -0.88,1 -1.32,1.47 -0.13788,0.13599 -0.26808,0.27954 -0.39,0.43 -0.4,0.45 -0.81,0.9 -1.19,1.35 -0.38,0.45 -0.66,0.75 -1,1.14 l -0.08,0.08 c -0.4,0.47 -0.81,1 -1.22,1.43 l -0.93,1.12 c -0.46,0.55 -0.91,1.11 -1.36,1.67 -1,1.22 -2,2.46 -2.92,3.7 -0.92,1.24 -2,2.61 -2.95,3.94 l -1.23,1.7 c -0.55,0.78 -1.1,1.56 -1.65,2.36 -0.34,0.5 -0.68,1 -1,1.5 -0.32,0.5 -0.87,1.29 -1.29,1.94 l -0.68,1 c -0.26,0.4 -0.52,0.8 -0.77,1.22 -0.25,0.42 -0.71,1.1 -1.05,1.66 -0.81,1.29 -1.59,2.58 -2.36,3.89 l -0.09,0.17 c -0.25,0.41 -0.48,0.82 -0.72,1.24 l -0.25,0.44 -0.13,0.23 c -0.28,0.48 -0.57,1 -0.83,1.47 -0.0396,0.0755 -0.083,0.1489 -0.13,0.22 l -0.44,0.79 c -0.21,0.37 -0.41,0.75 -0.62,1.13 -0.21,0.38 -0.29,0.56 -0.44,0.84 -0.15,0.28 -0.34,0.6 -0.49,0.91 l -0.11,0.23 -0.26,0.47 -0.17,0.33 -0.51,1 -0.09,0.17 -0.28,0.55 v 0 c -0.25,0.47 -0.49,0.94 -0.72,1.42 -0.1,0.22 -0.21,0.42 -0.31,0.64 -0.22,0.43 -0.43,0.86 -0.64,1.3 v 0.06 l -0.53,1.11 -0.21,0.45 -0.21,0.44 v 0 c -0.25,0.51 -0.48,1 -0.71,1.54 -0.23,0.54 -0.4,0.86 -0.59,1.3 l -0.24,0.53 c -0.0291,0.0784 -0.0625,0.15522 -0.1,0.23 l -0.17,0.38 -0.09,0.2 c -0.10534,0.21812 -0.19881,0.44178 -0.28,0.67 l -0.36,0.81 -0.27,0.63 c -0.11,0.25 -0.22,0.5 -0.31,0.75 l -0.3,0.71 c -0.09,0.22 -0.19,0.44 -0.28,0.67 l -0.86,2.13 c -0.22,0.58 -0.46,1.17 -0.68,1.76 0,0.14 -0.1,0.26 -0.15,0.39 -0.22,0.56 -0.43,1.13 -0.64,1.7 -0.09,0.27 -0.2,0.54 -0.3,0.81 -0.22,0.61 -0.44,1.21 -0.65,1.83 -0.21,0.62 -0.52,1.46 -0.76,2.19 -0.24,0.73 -0.49,1.46 -0.73,2.2 -0.24,0.74 -0.48,1.47 -0.71,2.21 -0.07,0.22 -0.14,0.44 -0.2,0.67 -0.06,0.23 -0.17,0.5 -0.24,0.76 -0.32,1.06 -0.63,2.12 -0.93,3.19 -0.21,0.69 -0.4,1.39 -0.58,2.1 -0.18,0.71 -0.42,1.5 -0.61,2.26 -0.19,0.76 -0.39,1.51 -0.57,2.28 -0.18,0.77 -0.37,1.51 -0.54,2.27 -0.17,0.76 -0.34,1.46 -0.5,2.18 -0.006,0.0721 -0.0229,0.14291 -0.05,0.21 -0.16,0.74 -0.32,1.48 -0.46,2.21 -0.14,0.73 -0.31,1.54 -0.46,2.32 v 0.07 c -0.15,0.73 -0.29,1.45 -0.4,2.19 -0.001,0.0233 -0.001,0.0467 0,0.07 -0.05,0.27 -0.1,0.54 -0.14,0.8 -0.08,0.41 -0.15,0.81 -0.21,1.22 0,0.1 0,0.21 -0.06,0.32 -0.11,0.65 -0.22,1.32 -0.31,2 -0.09,0.68 -0.22,1.38 -0.32,2.08 v 0.26 c 0,0.12 0,0.24 -0.06,0.37 0.005,0.0899 0.005,0.18007 0,0.27 -0.06,0.43 -0.12,0.88 -0.17,1.34 v 0.09 c -0.007,0.0865 -0.007,0.17346 0,0.26 l -0.06,0.41 c -0.07,0.49 -0.12,1 -0.18,1.48 v 0.06 c -0.1,0.72 -0.18,1.45 -0.26,2.19 v 0 c 0,0.35 -0.07,0.68 -0.11,1 -0.04,0.32 -0.08,0.79 -0.12,1.2 -0.04,0.41 -0.08,0.85 -0.12,1.29 -0.0679,0.1296 -0.16769,0.23974 -0.29,0.32 z"
         id="path28"
         inkscape:connector-curvature="0"
         style="fill:url(#linear-gradient-5)"
         sodipodi:nodetypes="ccsccsccccccccccccsccccccccccscccsscccccccscsscccsccccccccccccccsccscccccccccccccccccccccccccccccccccccccsccscccsscccccccccccccccccccccccccccscccccccscccccscccsccscccccccccssccccccccccccccccsccccccccccccccccssscsccssssccscccccccscsccccccccccsscc" />
      <path
         class="cls-6"
         d="M 604.14,623.34 C 563.74143,706.80269 491.28251,770.11833 400.72183,790.03887 301.13183,811.74887 189.25,779.43 114.15,701 c -0.14,-0.13 -0.27,-0.27 -0.39,-0.4 l -0.37,-0.4 c -0.78,-0.81 -1.53,-1.63 -2.3,-2.44 L 111,697.65 c -0.96667,-1.04 -1.93333,-2.08667 -2.9,-3.14 -0.73,-0.81 -1.46,-1.61 -2.18,-2.43 -2.32667,-2.6 -4.61667,-5.22667 -6.87,-7.88 -0.92,-1.07 -1.83,-2.15 -2.73,-3.22 -0.05099,-0.0466 -0.0948,-0.10054 -0.13,-0.16 -0.17,-0.19 -0.34,-0.39 -0.5,-0.6 -0.02472,-0.0188 -0.04517,-0.0427 -0.06,-0.07 -1.09,-1.31 -2.16,-2.62 -3.23,-3.94 -1.07,-1.32 -1.89,-2.34 -2.82,-3.52 -0.14,-0.17 -0.28,-0.34 -0.41,-0.52 l -0.25,-0.32 -0.3,-0.37 c -0.27,-0.34 -0.53,-0.67 -0.78,-1 l -0.68,-0.87 c -0.4,-0.5 -0.79,-1 -1.18,-1.52 -0.93,-1.21 -1.85,-2.41 -2.76,-3.62 l -0.17,-0.24 c -0.04203,-0.0398 -0.07598,-0.0873 -0.1,-0.14 l -1.6,-2.09 -1.57,-2.13 c -0.57,-0.78 -1.15,-1.58 -1.71,-2.37 L 77,656 c -0.69,-1 -1.36,-1.92 -2,-2.89 l -0.63,-0.9 c -0.64,-0.92 -1.28,-1.83 -1.9,-2.75 l -1,-1.48 c -0.7,-1 -1.4,-2.07 -2.09,-3.12 -0.59,-0.87 -1.17,-1.75 -1.74,-2.63 -0.69,-1.05 -1.37,-2.09 -2,-3.15 -0.26,-0.39 -0.51,-0.78 -0.76,-1.18 -0.53,-0.82 -1,-1.64 -1.57,-2.47 l -1.33,-2.15 c -0.41,-0.65 -0.82,-1.31 -1.21,-2 -0.57,-0.92 -1.13,-1.86 -1.69,-2.8 -0.2,-0.30667 -0.39,-0.64 -0.57,-1 -0.62,-1 -1.23,-2 -1.83,-3.08 -0.28,-0.48 -0.57,-1 -0.84,-1.44 L 54.2,620.3 c -0.33,-0.58 -0.66,-1.16 -1,-1.74 -0.34,-0.58 -0.82,-1.46 -1.23,-2.19 -0.41,-0.73 -0.75,-1.35 -1.12,-2 -0.46,-0.84 -0.92,-1.68 -1.37,-2.52 -0.36,-0.66 -0.72,-1.32 -1.07,-2 l -1.2,-2.27 c -0.44,-0.85 -0.88,-1.69 -1.31,-2.54 -0.26,-0.47 -0.5,-0.94 -0.74,-1.42 -0.47,-0.92 -0.93,-1.82 -1.38,-2.74 -0.366667,-0.72 -0.726667,-1.44 -1.08,-2.16 -1,-2 -1.98,-4.02667 -2.94,-6.08 -0.47,-1 -0.94,-2 -1.4,-3 -0.63,-1.34 -1.25,-2.7 -1.86,-4 -0.43,-1 -0.85,-1.89 -1.26,-2.84 -0.54,-1.22 -1.08,-2.43 -1.6,-3.66 -0.52,-1.23 -0.94,-2.19 -1.4,-3.29 -0.55,-1.3 -1.1,-2.62 -1.63,-3.94 -0.606667,-1.47333 -1.203333,-2.95333 -1.79,-4.44 -0.15,-0.35 -0.29,-0.72 -0.42,-1.08 -0.04691,-0.089 -0.0838,-0.18289 -0.11,-0.28 -0.41,-1 -0.8,-2 -1.18,-3 -0.12,-0.3 -0.23,-0.6 -0.34,-0.9 -0.22,-0.59 -0.45,-1.18 -0.67,-1.78 -0.22,-0.6 -0.49,-1.31 -0.73,-2 v 0 c -0.07,-0.21 -0.16,-0.42 -0.23,-0.64 l -0.06,-0.15 c -0.41,-1.13 -0.82,-2.25 -1.21,-3.38 -0.33,-0.92 -0.66,-1.84 -1,-2.77 -0.34,-0.93 -0.56,-1.57 -0.82,-2.37 -0.44,-1.28 -0.87,-2.56 -1.29,-3.84 -0.17,-0.54 -0.35,-1.06 -0.51,-1.59 -0.43,-1.31 -0.85,-2.62 -1.26,-3.94 -0.49,-1.56 -1,-3.13 -1.45,-4.7 -1.84,-6.1 -3.526667,-12.22667 -5.06,-18.38 -0.41,-1.61 -0.8,-3.2 -1.19,-4.82 -0.39,-1.62 -0.75,-3.21 -1.11,-4.81 -0.24,-1.08 -0.49,-2.16 -0.72,-3.25 -0.82,-3.74 -1.59,-7.51 -2.29,-11.27 -0.3,-1.62 -0.6,-3.24 -0.88,-4.86 -0.28,-1.62 -0.57,-3.24 -0.83,-4.87 -0.26,-1.63 -0.52,-3.23 -0.77,-4.86 -0.00407,-0.0633 -0.00407,-0.12673 0,-0.19 -0.46,-3.02667 -0.8833333,-6.05333 -1.27,-9.08 -0.24,-1.81 -0.46,-3.61 -0.67,-5.42 -0.56,-4.88 -1.0366667,-9.76667 -1.43,-14.66 -0.13,-1.64 -0.26,-3.27 -0.36,-4.9 -0.21,-3.2 -0.39,-6.38 -0.54,-9.57 -0.08,-1.63 -0.14,-3.25 -0.2,-4.86 v -0.3 C 0.11,425.56 0,422.28 0,419 v -4.91 -4.42 -0.5 c 0,-1.35 0,-2.71 0.08,-4.06 -2.1,108.29 53.41,205 139,260 90.73607,58.18313 205.60786,63.58206 301.40107,14.16575 C 536.27427,629.85944 598.45839,533.12365 603.64,425.46 v 0 -0.55 0 c 0.005,-0.0465 0.005,-0.0935 0,-0.14 v 0 -0.46 -0.8 c -0.005,-0.0699 -0.005,-0.14009 0,-0.21 v 0 -1.39 -1.19 c 0.01,-0.0931 0.01,-0.18692 0,-0.28 v -1 -4.25 -1.09 -1.8 -0.12 c 0.006,-0.0398 0.006,-0.0802 0,-0.12 v -2.29 c 0,-0.62 -0.02,-1.24 -0.06,-1.86 0.0102,-0.15316 0.0102,-0.30684 0,-0.46 l -0.06,-1.13 c 0,-0.38 0,-0.77 -0.05,-1.15 -0.005,-0.0398 -0.005,-0.0802 0,-0.12 0,-0.72 -0.08,-1.46 -0.13,-2.18 -0.005,-0.0699 -0.005,-0.14011 0,-0.21 -0.1,-1.46 -0.22,-2.92 -0.35,-4.38 -0.06,-0.74667 -0.13,-1.49667 -0.21,-2.25 -0.08,-0.77 -0.16,-1.55 -0.25,-2.32 -0.09,-0.77 -0.17,-1.51 -0.27,-2.26 -0.19,-1.52 -0.39,-3 -0.62,-4.51 -0.11,-0.76 -0.24,-1.51 -0.36,-2.25 -0.12,-0.74 -0.23,-1.5 -0.38,-2.23 -0.15,-0.73 -0.26,-1.5 -0.4,-2.23 -0.14,-0.73 -0.27,-1.48 -0.43,-2.22 -0.16,-0.74 -0.29,-1.49 -0.46,-2.22 -0.08,-0.37 -0.15,-0.73 -0.23,-1.1 -0.08,-0.37 -0.15,-0.69 -0.24,-1 0.009,-0.0462 0.009,-0.0938 0,-0.14 -0.15,-0.7 -0.3,-1.39 -0.48,-2.09 -0.0272,-0.14558 -0.064,-0.28922 -0.11,-0.43 -0.11,-0.5 -0.23,-1 -0.35,-1.47 -0.06,-0.24 -0.12,-0.48 -0.19,-0.72 -0.07,-0.24 -0.08,-0.34 -0.12,-0.51 -0.1,-0.42 -0.22,-0.84 -0.33,-1.27 -0.06,-0.25 -0.14,-0.51 -0.21,-0.77 -0.07,-0.26 -0.19,-0.69 -0.28,-1 -0.16,-0.6 -0.33,-1.21 -0.5,-1.81 -0.17,-0.6 -0.43,-1.49 -0.65,-2.22 l -0.39,-1.28 c -0.15,-0.49 -0.3,-1 -0.46,-1.46 0,-0.16 -0.09,-0.3 -0.14,-0.45 -0.13,-0.4 -0.25,-0.81 -0.39,-1.22 -0.14,-0.41 -0.2,-0.62 -0.31,-0.93 l -0.06,-0.19 c 0,-0.1 -0.06,-0.19 -0.09,-0.29 l -0.34,-1 c -0.21,-0.62 -0.43,-1.25 -0.65,-1.86 -0.06,-0.19 -0.12,-0.38 -0.19,-0.56 -0.07,-0.18 -0.1,-0.25 -0.14,-0.37 -0.04,-0.12 0,-0.11 0,-0.16 0,-0.05 -0.14,-0.37 -0.21,-0.55 -0.07,-0.18 -0.09,-0.26 -0.13,-0.38 -0.04,-0.12 -0.12,-0.32 -0.17,-0.47 -0.26,-0.7 -0.52,-1.39 -0.79,-2.08 -0.27,-0.69 -0.47,-1.25 -0.71,-1.86 0,-0.07 -0.05,-0.15 -0.08,-0.21 l -0.3,-0.75 c -0.17,-0.44 -0.34,-0.86 -0.53,-1.29 l -0.24,-0.59 c 0,-0.07 -0.05,-0.14 -0.07,-0.2 -0.57,-1.37 -1.16,-2.74 -1.76,-4.1 v -0.05 l -0.92,-2 c -0.05,-0.12 -0.11,-0.24 -0.18,-0.37 -0.25,-0.57 -0.51,-1.13 -0.78,-1.7 -0.16,-0.34 -0.33,-0.68 -0.5,-1 -0.17,-0.32 -0.31,-0.68 -0.49,-1 -0.48,-1 -0.98,-2 -1.5,-3 -0.39,-0.79 -0.8,-1.57 -1.21,-2.34 -0.53,-1 -1.09,-2.05 -1.65,-3.07 -0.56,-1.02 -1,-1.87 -1.57,-2.8 -0.18,-0.32 -0.35,-0.64 -0.54,-0.95 -2.32,-4 -4.80333,-7.93 -7.45,-11.79 -0.39,-0.56 -0.78,-1.14 -1.18,-1.7 -0.68,-1 -1.37,-1.95 -2.08,-2.91 -0.44,-0.60667 -0.89,-1.21667 -1.35,-1.83 -0.45,-0.61 -0.91,-1.2 -1.37,-1.8 -0.24,-0.33 -0.49,-0.64 -0.74,-1 -0.25,-0.36 -0.53,-0.68 -0.8,-1 l -0.09,-0.11 -0.09,-0.12 -0.06,-0.07 c -0.33,-0.43 -0.67,-0.85 -1,-1.28 l -0.3,-0.37 c -0.21,-0.27 -0.42,-0.53 -0.64,-0.79 l -0.46,-0.56 v 0 c -0.18,-0.24 -0.38,-0.47 -0.57,-0.7 l -0.38,-0.45 -0.13,-0.17 c -0.13,-0.14 -0.25,-0.28 -0.37,-0.43 v 0 l -0.46,-0.53 -0.61,-0.72 c -0.06,-0.07 -0.13,-0.16 -0.2,-0.23 v 0 c -0.05,-0.06 -0.11,-0.12 -0.15,-0.18 l -0.11,-0.11 c -0.38,-0.44 -0.75,-0.87 -1.14,-1.3 l -0.16,-0.2 c 82.11706,91.12303 100.93092,222.87538 47.6,333.34 z"
         id="path30"
         inkscape:connector-curvature="0"
         style="fill:url(#linear-gradient-6)"
         sodipodi:nodetypes="ccccccccccccccsccccccccccccccccccccccccccccccssccccccccccccscccccccscccccsccccccscccsscccccccccsccsccscccccccccccccccccccscccccccccsccsssscscccccsccscsccccscccccssssscscccccccccccscccscccccccscccccccccccccccccccccccc" />
      <path
         class="cls-7"
         d="m 116.85,703.81 c -0.91,-0.92 -1.8,-1.86 -2.7,-2.81 75.11,78.43 183,107.77 282.61,86.06 C 501.8431,764.0732 586.76071,686.91517 619.68134,584.50871 652.60197,482.10225 628.5533,369.91481 556.55,290 l -0.14,-0.15 c -0.27,-0.29 -0.53,-0.59 -0.79,-0.88 l -0.68,-0.75 c -0.7,-0.78 -1.42,-1.55 -2.14,-2.31 l -0.47,-0.51 -0.33,-0.4 -0.1,-0.11 c -0.065,-0.0584 -0.12522,-0.12192 -0.18,-0.19 v 0 l -0.17,-0.18 c -0.18,-0.17 -0.35,-0.37 -0.53,-0.54 -0.0414,-0.0547 -0.0883,-0.10493 -0.14,-0.15 l -0.52,-0.54 -0.24,-0.25 c -0.1,-0.1 -0.21,-0.19 -0.3,-0.3 l -0.43,-0.42 c -0.2,-0.22 -0.41,-0.43 -0.63,-0.64 v 0 l -0.31,-0.32 -0.92,-0.91 -0.35,-0.33 c -0.23,-0.24 -0.46,-0.47 -0.71,-0.7 L 545.79,278.76 545,278 c -0.44,-0.41 -0.87,-0.83 -1.32,-1.23 -0.45,-0.4 -1,-0.92 -1.48,-1.37 l -1,-0.9 -0.7,-0.62 c -0.82,-0.74 -1.66,-1.47 -2.5,-2.19 -0.50667,-0.44 -1.01667,-0.87 -1.53,-1.29 -0.33,-0.28 -0.66,-0.57 -1,-0.83 l -1.4,-1.15 c -4.82,-3.92 -9.79333,-7.57 -14.92,-10.95 -0.63,-0.42 -1.27,-0.84 -1.92,-1.25 -0.65,-0.41 -1,-0.68 -1.56,-1 -0.56,-0.32 -1.3,-0.81 -1.95,-1.2 -0.35,-0.23 -0.71,-0.44 -1.07,-0.65 -0.36,-0.21 -0.83,-0.52 -1.25,-0.76 l -1.6,-0.94 -0.37,-0.21 -1.61,-0.92 -2,-1.1 c -0.22,-0.10667 -0.44,-0.22667 -0.66,-0.36 -0.12846,-0.0567 -0.25218,-0.1236 -0.37,-0.2 -0.45,-0.25 -0.89,-0.49 -1.35,-0.72 l -0.3,-0.16 c -0.65,-0.35 -1.3,-0.68 -1.95,-1 l -1.2,-0.61 -0.59,-0.29 -2.21,-1.1 -1.45,-0.69 h -0.05 l -0.54,-0.26 -0.27,-0.12 -0.72,-0.34 -0.14,-0.06 -0.5,-0.23 h -0.11 l -0.24,-0.12 -0.16,-0.06 c -0.43,-0.19 -0.85,-0.39 -1.29,-0.57 l -0.52,-0.24 -0.27,-0.11 c -0.54,-0.24 -1.08,-0.49 -1.64,-0.71 l -1.62,-0.69 -0.64,-0.27 -0.6,-0.24 -2.14,-0.86 c -0.48,-0.18 -1,-0.38 -1.42,-0.55 l -0.34,-0.13 -1,-0.38 -0.74,-0.28 -1.73,-0.62 -0.7,-0.26 -1.42,-0.49 -0.43,-0.16 c -0.67,-0.23 -1.35,-0.46 -2,-0.67 l -0.13,-0.05 -2.07,-0.67 c -0.71,-0.23 -1.44,-0.45 -2.17,-0.67 -0.73,-0.22 -1.43,-0.44 -2.16,-0.64 -0.73,-0.2 -1.44,-0.42 -2.18,-0.62 -0.74,-0.2 -1.44,-0.4 -2.19,-0.59 -0.75,-0.19 -1.46,-0.39 -2.2,-0.57 -1.47,-0.37 -2.94,-0.72 -4.43,-1.06 l -2.23,-0.49 -1.81,-0.38 -0.41,-0.07 h -0.05 l -2.23,-0.43 c -1.43,-0.27 -2.88,-0.53 -4.33,-0.77 l -0.9,-0.13 c -0.31,-0.06 -0.61,-0.11 -0.93,-0.15 l -0.53,-0.08 h -0.12 c -0.74,-0.12 -1.5,-0.23 -2.25,-0.33 v 0 c -0.38,-0.06 -0.76,-0.11 -1.15,-0.15 l -1.57,-0.2 c -0.25,0 -0.53,-0.08 -0.79,-0.1 l -1.09,-0.13 h -0.13 -0.43 -0.34 -0.52 l -0.61,-0.06 -1.09,-0.11 c -0.13979,-0.0108 -0.28021,-0.0108 -0.42,0 -0.34,0 -0.68,-0.07 -1,-0.09 h -0.36 c 105.27557,8.19273 211.02397,68.79015 258.59013,163.06384 47.56616,94.27368 51.27544,198.87128 -4.68595,288.41674 C 630.10418,767.18058 509.11,833.84 397.75,829.86 c -1.08,0 -2.16,-0.08 -3.24,-0.14 -1.28,-0.06 -2.55,-0.13 -3.83,-0.21 h -0.09 l -3.24,-0.2 -1.58,-0.11 -0.79,-0.05 h -0.26 c -1.39,-0.1 -2.75,-0.21 -4.14,-0.33 -1.15,-0.09 -2.29,-0.2 -3.44,-0.31 -3.72,-0.32 -7.44,-0.72 -11.14,-1.16 l -2.58,-0.32 c -1,-0.12 -2,-0.24 -2.95,-0.38 -2.96,-0.38 -5.91667,-0.80333 -8.87,-1.27 l -3.53,-0.56 c -2.1,-0.33 -4.19,-0.69 -6.29,-1.07 -1.26,-0.22 -2.51,-0.45 -3.75,-0.7 -0.43,-0.06 -0.85,-0.15 -1.28,-0.23 -1.5,-0.28 -3,-0.59 -4.52,-0.9 -1.13,-0.22 -2.27,-0.46 -3.4,-0.7 -6.9,-1.45333 -13.76,-3.09 -20.58,-4.91 -1.22,-0.32 -2.44,-0.65 -3.65,-1 -2.88,-0.78 -5.74,-1.6 -8.6,-2.46 L 293.16,812 c -4.51333,-1.38 -8.99333,-2.84 -13.44,-4.38 -1.5,-0.50667 -3.00333,-1.03333 -4.51,-1.58 -1.50667,-0.54667 -3.05667,-1.11 -4.65,-1.69 -1,-0.37 -2,-0.75 -3,-1.14 -1,-0.39 -1.75,-0.65 -2.62,-1 -1.5,-0.57 -3,-1.17 -4.5,-1.77 l -0.51,-0.21 c -1.32,-0.52 -2.63,-1.06 -3.94,-1.6 -0.0945,-0.0244 -0.18533,-0.0614 -0.27,-0.11 l -4.58,-1.93 -3.6,-1.59 c -0.34,-0.13 -0.66,-0.28 -1,-0.43 l -3.1,-1.39 L 243,793 c -0.075,-0.0295 -0.14843,-0.0629 -0.22,-0.1 l -0.59,-0.27 c -0.0534,-0.0152 -0.10406,-0.0388 -0.15,-0.07 l -0.9,-0.41 -1.47,-0.68 -1,-0.46 -0.21,-0.11 -0.27,-0.12 c -0.24,-0.1 -0.48,-0.22 -0.72,-0.34 l -0.72,-0.35 c -0.43333,-0.19333 -0.85333,-0.39333 -1.26,-0.6 l -0.72,-0.34 -1.61,-0.78 v 0 c -0.64,-0.3 -1.27,-0.62 -1.91,-0.93 l -0.84,-0.43 c -1,-0.47 -1.94,-1 -2.91,-1.46 -0.44,-0.21 -0.87,-0.44 -1.3,-0.66 -1.42,-0.72 -2.83667,-1.45667 -4.25,-2.21 -1.26,-0.66 -2.52,-1.33 -3.76,-2 -1,-0.56 -2.09,-1.12 -3.13,-1.71 -1.04,-0.59 -2.34,-1.29 -3.5,-1.94 l -2.7,-1.53 -3.86,-2.29 -2.83,-1.69 c -1.93,-1.16 -3.86,-2.33 -5.77,-3.51 -0.68,-0.42 -1.36,-0.84 -2,-1.28 l -2.6,-1.64 -1.34,-0.87 -2.4,-1.56 c -0.72,-0.46 -1.43,-0.94 -2.15,-1.41 -0.72,-0.47 -1.25,-0.83 -1.87,-1.25 l -2.38,-1.62 -1.91,-1.31 c -0.69,-0.47 -1.37,-0.94 -2.06,-1.43 -0.69,-0.49 -1.1,-0.76 -1.64,-1.15 -0.86,-0.61 -1.72,-1.21 -2.57,-1.84 -0.46,-0.32 -0.91,-0.64 -1.35,-1 -1,-0.7 -1.94,-1.4 -2.89,-2.11 -0.31,-0.22 -0.62,-0.44 -0.91,-0.67 -0.88,-0.64 -1.75,-1.3 -2.61,-1.95 -0.62,-0.45 -1.23,-0.92 -1.84,-1.4 -0.61,-0.48 -1.35,-1 -2,-1.53 -0.65,-0.53 -1.55,-1.19 -2.31,-1.8 l -1.1,-0.86 c -1,-0.77 -2,-1.54 -2.94,-2.33 -0.82,-0.66 -1.64,-1.32 -2.45,-2 l -2.91,-2.39 -1.36,-1.15 c -0.86,-0.7 -1.71,-1.43 -2.56,-2.16 l -0.84,-0.71 c -0.89,-0.77 -1.79,-1.53 -2.67,-2.31 -0.45,-0.39 -0.9,-0.78 -1.34,-1.18 -0.74,-0.64 -1.48,-1.28 -2.2,-1.93 l -2,-1.77 c -0.66,-0.59 -1.31,-1.19 -2,-1.79 l -0.35,-0.31 c -1.04667,-0.96 -2.09333,-1.93 -3.14,-2.91 -0.0714,-0.0581 -0.13829,-0.12164 -0.2,-0.19 -1,-0.91 -2,-1.83 -2.93,-2.76 l -0.2,-0.19 -0.38,-0.25 -0.21,-0.2 -2.71,-2.62 -0.08,-0.18 -0.26,-0.26 -1,-1 -1.5,-1.49 -0.63,-0.64 c -0.6,-0.58 -1.18,-1.17 -1.76,-1.77 -0.0423,-0.0182 -0.0774,-0.0498 -0.1,-0.09 l -0.11,-0.11 c -0.43,-0.44 -0.87,-0.88 -1.3,-1.33 -0.09,-0.08 -0.17,-0.18 -0.26,-0.26 l -0.26,-0.27 -0.21,-0.21 z"
         id="path32"
         inkscape:connector-curvature="0"
         style="fill:url(#linear-gradient-7)"
         sodipodi:nodetypes="cccscccccccccccccccccccccccccsccccccccsscsccccccccccccccccccccccccccccccccccccccccccsssscccccccccccccccccccccccccccsccccccccccccccccccccccccccscsccccccccccccccccccccccccccccccscccccccccscccsccccccsscccccccccccccccccccccccccccccccccc" />
      <path
         class="cls-8"
         d="m 398.79,829.9 h -1 c 111.36,4 211.12,-53 266.61,-141.37 A 301.91,301.91 0 0 0 431.57,227 a 0.74,0.74 0 0 0 -0.3,0 h -0.37 -0.16 l -1.22,-0.09 c -0.12,0 -0.25,0 -0.37,0 a 2.19,2.19 0 0 0 -0.36,0 q -0.45,0 -0.87,-0.06 -1.82,-0.13 -3.63,-0.21 h -0.46 l -4.2,-0.15 H 419 417.85 a 0.48,0.48 0 0 0 -0.17,0 h -3.51 -2.41 a 6,6 0 0 0 -0.6,0 c -1.27,0 -2.53,0.05 -3.78,0.11 h -0.84 c -3,0.13 -6.06,0.33 -9.06,0.62 l -2.35,0.23 c -1.46,0.15 -2.9,0.32 -4.34,0.5 l -0.47,0.07 c -0.75,0.09 -1.48,0.19 -2.2,0.31 -3.88,0.55 -7.73,1.22 -11.52,2 -0.77,0.15 -1.53,0.31 -2.27,0.49 -0.74,0.18 -1.51,0.33 -2.26,0.51 -0.75,0.18 -1.34,0.3 -2,0.47 l -2.51,0.64 c -0.34,0.08 -0.66,0.17 -1,0.27 l -0.42,0.1 -1.34,0.37 -0.27,0.07 v 0 l -1.17,0.31 a 1.21,1.21 0 0 1 -0.25,0.08 c -0.25,0.07 -0.51,0.14 -0.77,0.23 -0.45,0.12 -0.88,0.25 -1.32,0.39 -0.18,0.05 -0.35,0.09 -0.51,0.15 a 2.77,2.77 0 0 0 -0.41,0.12 q -1,0.3 -2,0.63 l -0.14,0.05 -1.22,0.38 -1.45,0.48 -1.61,0.55 -0.3,0.11 -0.81,0.27 -0.4,0.15 -0.24,0.08 -0.39,0.14 c -1.17,0.41 -2.33,0.85 -3.48,1.28 a 2.67,2.67 0 0 1 -0.36,0.14 l -1.78,0.7 -0.48,0.19 -1,0.41 -0.62,0.25 -0.32,0.12 -0.39,0.17 -1.41,0.59 a 2.52,2.52 0 0 0 -0.29,0.12 l -1,0.43 -1.09,0.47 -0.38,0.18 c -0.57,0.24 -1.13,0.49 -1.7,0.75 l -2.07,1 -1.79,0.86 -0.8,0.37 -1.9,0.95 c -0.56,0.27 -1.11,0.56 -1.66,0.84 -3.4,1.75 -6.77,3.6 -10.08,5.58 -0.57,0.33 -1.14,0.68 -1.7,1 q -3.12,1.89 -6.16,3.92 l -1.66,1.11 -1.13,0.77 -1.08,0.75 -0.35,0.25 -1.55,1.1 c -0.39,0.28 -0.77,0.55 -1.15,0.84 l -0.75,0.55 -1.08,0.79 -1.69,1.15 -1.43,1.1 -0.58,0.46 c -0.33,0.25 -0.65,0.51 -1,0.77 -0.35,0.26 -0.52,0.4 -0.77,0.62 l -0.38,0.31 c -0.34,0.26 -0.67,0.53 -1,0.8 l -0.05,0.05 -0.35,0.28 -0.62,0.52 a 6.12,6.12 0 0 1 -0.49,0.4 l -0.61,0.52 -0.61,0.52 v 0 a 302,302 0 0 1 403.38,449.33 c -1.87,1.74 -3.78,3.46 -5.69,5.16 -1.11,1 -2.22,2 -3.34,2.92 -0.12,0.11 -0.24,0.2 -0.34,0.3 l -2.41,2.06 c -0.41,0.36 -0.83,0.72 -1.25,1.06 l -0.2,0.17 -0.08,0.08 -0.35,0.28 c -0.34,0.3 -0.67,0.58 -1,0.86 L 681,734 c -0.66,0.56 -1.31,1.1 -2,1.64 -0.24,0.21 -0.5,0.41 -0.75,0.61 -0.89,0.75 -1.79,1.47 -2.7,2.2 l -0.2,0.16 a 0.93,0.93 0 0 0 -0.15,0.13 0.69,0.69 0 0 0 -0.13,0.11 l -1.44,1.14 -2.14,1.7 a 1.39,1.39 0 0 0 -0.19,0.15 l -3.39,2.63 -0.33,0.25 -0.22,0.17 c -1,0.8 -2.08,1.58 -3.11,2.36 l -0.61,0.45 c -1.33,1 -2.65,2 -4,2.94 -0.95,0.7 -1.91,1.4 -2.87,2.08 -1.72,1.24 -3.45,2.45 -5.19,3.66 -1.36,0.94 -2.71,1.88 -4.09,2.8 -1.13,0.77 -2.25,1.52 -3.39,2.27 q -4.49,3 -9.06,5.84 l -2.92,1.81 c -1.84,1.13 -3.69,2.25 -5.55,3.34 q -2,1.17 -3.93,2.3 l -0.45,0.27 c -1,0.57 -2,1.13 -3,1.68 -1.85,1.06 -3.72,2.09 -5.6,3.12 -1.46,0.79 -2.92,1.58 -4.38,2.35 -1,0.55 -2.07,1.11 -3.12,1.64 -1.9,1 -3.8,2 -5.72,2.92 l -3.27,1.62 q -3,1.44 -5.94,2.84 l -4.28,2 c -1.06,0.48 -2.13,1 -3.21,1.43 l -1.74,0.79 -4,1.72 -0.24,0.11 -4.57,1.91 c -1.08,0.45 -2.17,0.88 -3.26,1.32 -0.46,0.2 -0.92,0.37 -1.38,0.56 l -1.11,0.44 -1.37,0.54 -1.87,0.73 -0.72,0.27 -1.05,0.4 -0.91,0.34 -1.23,0.47 -0.46,0.17 -0.48,0.18 -0.57,0.2 c -0.51,0.2 -1,0.39 -1.55,0.57 l -2.19,0.79 -1,0.37 -0.51,0.18 -1,0.34 -2.46,0.86 -0.33,0.1 a 1.88,1.88 0 0 1 -0.38,0.13 c -1,0.34 -2,0.69 -3,1 l -0.56,0.19 -0.47,0.15 c -0.52,0.17 -1.05,0.35 -1.58,0.51 -0.7,0.24 -1.41,0.46 -2.12,0.69 -1.58,0.51 -3.16,1 -4.74,1.49 l -0.28,0.08 c -1.35,0.41 -2.71,0.82 -4.08,1.21 a 4.1,4.1 0 0 1 -0.53,0.15 c -1.54,0.46 -3.09,0.91 -4.65,1.34 l -3.25,0.89 c -0.77,0.21 -1.53,0.42 -2.3,0.61 q -11.67,3.12 -23.49,5.5 c -1.36,0.28 -2.73,0.55 -4.1,0.8 l -0.75,0.15 c -1.24,0.24 -2.49,0.47 -3.74,0.69 -1,0.2 -2.08,0.39 -3.13,0.56 -1.25,0.22 -2.49,0.43 -3.74,0.63 l -3.93,0.63 -4.29,0.64 -0.59,0.09 -4.29,0.57 c -5.09,0.69 -10.19,1.25 -15.31,1.73 -1,0.1 -2,0.19 -3,0.26 -1,0.07 -1.79,0.17 -2.7,0.24 -1.32,0.11 -2.65,0.21 -4,0.3 -1.07,0.07 -2.14,0.15 -3.21,0.2 -1.07,0.05 -1.84,0.13 -2.77,0.17 l -3.84,0.21 h -0.17 c -1.1,0.06 -2.21,0.1 -3.31,0.14 -0.5,0 -1,0.05 -1.51,0.06 -1.27,0 -2.55,0.08 -3.81,0.11 -0.42,0 -0.84,0 -1.26,0 h -0.7 -1.49 c -1.17,0 -2.36,0 -3.56,0 -0.6,0 -1.19,0 -1.8,0 h -3.12 c -0.61,0 -1.23,0 -1.86,0 h -0.49 c -1.15,0 -2.29,0 -3.44,0 -1.76,0 -3.53,-0.07 -5.3,-0.12 -1.39,0.03 -2.82,0.03 -4.24,-0.07 z"
         id="path34"
         inkscape:connector-curvature="0"
         style="fill:url(#linear-gradient-8)" />
    </g>
  </g>
</svg>
